<?xml version="1.0" encoding="UTF-8"?>
<svg width="39px" height="39px" viewBox="0 0 39 39" version="1.1" xmlns="http://www.w3.org/2000/svg" xmlns:xlink="http://www.w3.org/1999/xlink">
    <!-- Generator: Sketch 50.2 (55047) - http://www.bohemiancoding.com/sketch -->
    <title>Artboard</title>
    <desc>Created with Sketch.</desc>
    <defs></defs>
    <g id="Artboard" stroke="none" stroke-width="1" fill="none" fill-rule="evenodd">
        <g id="logo">
            <circle id="circle" fill="#DB001B" fill-rule="nonzero" cx="19.5" cy="19.5" r="19.5"></circle>
            <path d="M22.2,18.4540497 C21.0461538,18.4540497 20.2,19.3771267 20.2,20.4540497 C20.2,21.6078959 21.1230769,22.4540497 22.2,22.4540497 C23.3538462,22.4540497 24.2,21.5309728 24.2,20.4540497 C24.2,19.3771267 23.2769231,18.4540497 22.2,18.4540497 Z M8.2,16.3546854 C6.6,16.3546854 5.2,17.6546854 5.2,19.3546854 C5.2,20.9546854 6.5,22.3546854 8.2,22.3546854 C9.9,22.3546854 11.2,21.0546854 11.2,19.3546854 C11.2,17.6546854 9.8,16.3546854 8.2,16.3546854 Z M16.7,26.6087351 C15.9,26.6087351 15.2,27.2587351 15.2,28.1087351 C15.2,28.9087351 15.85,29.6087351 16.7,29.6087351 C17.55,29.6087351 18.2,28.9587351 18.2,28.1087351 C18.2,27.2587351 17.5,26.6087351 16.7,26.6087351 Z M26.5461799,21.6256454 C24.8949844,23.1654101 25.325366,23.9106911 25.325366,23.9106911 C25.325366,23.9106911 30.4569512,22.0360569 32.0187136,16.5224252 C31.3058489,14.7175427 31.2624347,13.3468046 27.0729431,10.4620603 C27.7238701,10.1196653 27.8373265,9.48465695 27.3534005,8.96570979 C26.9134677,8.49393965 26.2689082,8.65399408 25.8443151,9.04993357 C25.4197219,9.44587307 25.2119115,10.1688679 26.2237568,11.2539393 C27.0156358,12.1031255 30.0861931,14.3554663 30.8334998,16.4810366 C30.1061631,19.0115186 29.3768008,18.9860487 26.5461799,21.6256454 Z M24.470533,25.5025517 C23.070533,23.6025517 20.670533,24.0025517 19.870533,24.1025517 C19.670533,23.0025517 18.670533,21.8025517 18.370533,22.1025517 C18.070533,22.4025517 18.070533,25.2025517 19.170533,25.9025517 C20.070533,26.5025517 22.570533,25.6025517 22.570533,28.3025517 C22.570533,30.0025517 22.170533,31.3025517 19.970533,31.3025517 C18.870533,31.3025517 18.270533,30.7025517 18.870533,32.0025517 C19.570533,33.5025517 22.970533,33.0025517 24.170533,30.7025517 C24.670533,29.6025517 25.570533,27.0025517 24.470533,25.5025517 Z M12.1047179,24.928709 C11.944432,25.6399322 11.8363294,25.9540919 11.9307736,26.2522539 C12.1196619,26.8485779 12.7235661,26.3206176 13.3237343,25.31269 C14.3600489,23.5280908 15.7504386,17.5241458 16.1256441,13.6524126 C16.4922128,13.4051589 20.9110016,15.3701418 22.419537,15.0763526 C23.1004909,14.9789088 24.3256938,13.7906336 22.7636896,11.9492956 C22.4878292,12.0147441 22.5822733,12.3129061 21.6776422,12.0787349 C18.3523727,10.9442472 15.48438,9.38070069 14.0181055,10.3697153 C13.1383409,10.9631241 13.6142976,12.9339013 13.121067,18.2120831 C12.7483119,20.0315929 12.6551533,22.2656215 12.1047179,24.928709 Z" id="sign-inner" fill="#FFFFFF" fill-rule="nonzero"></path>
        </g>
    </g>
</svg>